<?xml version="1.0" standalone="no"?>
<!DOCTYPE svg PUBLIC "-//W3C//DTD SVG 1.1//EN" "http://www.w3.org/Graphics/SVG/1.1/DTD/svg11.dtd" >
<svg xmlns="http://www.w3.org/2000/svg">
<metadata>
Created by FontPrep 20130207 at Thu Jun 30 11:38:13 2016
 By Christopher Wigley
</metadata>
<defs>
<font id="e47af4d35441579b62d0f15885f78255" horiz-adv-x='1024' >
  <font-face 
    font-family="SourceHanSansTC-Regular-Alphabetic"
    font-weight="400"
    font-stretch="normal"
    units-per-em="2048"
    panose-1="2 0 5 3 0 0 0 0 0 0"
    ascent="1638"
    descent="-410"
    bbox="59 -512 1985 1655"
    underline-thickness="102"
    underline-position="-205"
    unicode-range="U+FF21-FF5A"
  />
<missing-glyph horiz-adv-x="745" 
d="M135 68h408v1228h-408v-1228zM68 0v1364h542v-1364h-542z" />
    <glyph glyph-name=".notdef" horiz-adv-x="745" 
d="M135 68h408v1228h-408v-1228zM68 0v1364h542v-1364h-542z" />
    <glyph glyph-name=".null" horiz-adv-x="0" vert-adv-y="0" 
 />
    <glyph glyph-name="nonmarkingreturn" horiz-adv-x="681" 
 />
    <glyph glyph-name="Identity.59024" unicode="&#xff21;" 
d="M735 606h551l-90 240q-135 375 -182 506h-8q-43 -133 -181 -506zM1499 0l-170 459h-639l-170 -459h-198l573 1505h231l580 -1505h-207z" />
    <glyph glyph-name="Identity.59025" unicode="&#xff22;" 
d="M680 152h342q240 0 350 66t109 218q0 151 -111 216t-354 65h-336v-565zM680 864h291q215 0 314 60t99 189q0 130 -95 186t-302 57h-307v-492zM492 0v1505h509q573 0 574 -370q1 -115 -61 -203t-181 -123v-10q160 -27 248 -119t88 -240q0 -227 -153 -334
q-154 -106 -472 -106h-552z" />
    <glyph glyph-name="Identity.59026" unicode="&#xff23;" 
d="M1148 -25q-320 0 -524 209q-206 210 -206 566t207 568t542 212q279 0 473 -187l-108 -122q-154 143 -363 143q-253 0 -405 -165t-152 -445t151 -445q151 -166 392 -166t422 170l106 -123q-215 -215 -535 -215z" />
    <glyph glyph-name="Identity.59027" unicode="&#xff24;" 
d="M641 158h219q307 0 466 154t159 446q0 290 -158 440t-467 150h-219v-1190zM457 0v1505h415q395 0 602 -193q206 -194 206 -553t-206 -559q-204 -200 -591 -200h-426z" />
    <glyph glyph-name="Identity.59028" unicode="&#xff25;" 
d="M571 0v1505h985v-162h-796v-473h641v-161h-641v-547h823v-162h-1012z" />
    <glyph glyph-name="Identity.59029" unicode="&#xff26;" 
d="M610 0v1505h987v-162h-798v-509h647v-162h-647v-672h-189z" />
    <glyph glyph-name="Identity.59030" unicode="&#xff27;" 
d="M1120 -27q-334 0 -546 209q-212 208 -212 566t218 570t559 212q289 0 495 -187l-108 -122q-162 143 -383 143q-260 0 -423 -166t-163 -446t159 -445q159 -166 435 -166q217 0 328 88v392h-383v157h557v-631q-199 -174 -533 -174z" />
    <glyph glyph-name="Identity.59031" unicode="&#xff28;" 
d="M414 0v1505h190v-633h842v633h188v-1505h-188v709h-842v-709h-190z" />
    <glyph glyph-name="Identity.59032" unicode="&#xff29;" 
d="M510 0v160h420v1181h-420v164h1032v-164h-424v-1181h424v-160h-1032z" />
    <glyph glyph-name="Identity.59033" unicode="&#xff2a;" 
d="M1423 442q-1 -209 -115 -338t-347 -129q-305 0 -465 244l135 98q119 -176 311 -176q291 0 291 320v1044h190v-1063z" />
    <glyph glyph-name="Identity.59034" unicode="&#xff2b;" 
d="M498 0v1505h188v-772h8l750 772h219l-545 -575l629 -930h-215l-531 795l-315 -324v-471h-188z" />
    <glyph glyph-name="Identity.59035" unicode="&#xff2c;" 
d="M623 0v1505h188v-1343h774v-162h-962z" />
    <glyph glyph-name="Identity.59036" unicode="&#xff2d;" 
d="M315 0v1505h228l350 -807q18 -45 40 -97q23 -52 49 -117t40 -99h8q25 57 67 163t60 150l346 807h230v-1505h-177v831q0 154 23 447h-10l-144 -346l-340 -780h-127l-342 780l-141 346h-8q20 -334 20 -447v-831h-172z" />
    <glyph glyph-name="Identity.59037" unicode="&#xff2e;" 
d="M424 0v1505h192l639 -940l205 -319h10q-25 256 -24 479v780h182v-1505h-196l-639 942l-201 318h-10q20 -303 20 -472v-788h-178z" />
    <glyph glyph-name="Identity.59038" unicode="&#xff2f;" 
d="M1024 1364q-242 0 -387 -164t-145 -443q0 -280 146 -448t387 -168t386 168t145 448q0 279 -145 443t-387 164zM1024 1530q326 0 526 -208t201 -565q0 -357 -199 -569q-200 -212 -526 -213q-326 0 -528 213q-202 214 -201 570q0 356 201 564q200 208 526 208z" />
    <glyph glyph-name="Identity.59039" unicode="&#xff30;" 
d="M707 752h274q237 0 351 74t114 236q0 161 -116 224t-359 64h-264v-598zM518 0v1505h479q309 0 473 -104q164 -105 164 -337t-166 -349t-460 -117h-301v-598h-189z" />
    <glyph glyph-name="Identity.59040" unicode="&#xff31;" 
d="M1021 131q241 0 387 170t146 453q0 282 -146 446t-387 164t-386 -164t-145 -446t144 -453q146 -170 387 -170zM1548 -377q-227 0 -385 97t-235 260q-285 34 -458 242t-173 550t201 550q200 208 524 208t526 -208t201 -547q0 -339 -169 -546t-445 -243q55 -98 172 -152
t239 -53q122 0 211 29l39 -146q-92 -41 -248 -41z" />
    <glyph glyph-name="Identity.59041" unicode="&#xff32;" 
d="M700 1350v-562h308q434 0 434 293q0 145 -109 207t-325 62h-308zM700 637v-637h-180v1505h516q598 0 598 -424q0 -170 -106 -276t-297 -139l455 -666h-216l-430 637h-340z" />
    <glyph glyph-name="Identity.59042" unicode="&#xff33;" 
d="M1618 397q0 -186 -157 -305t-419 -119q-362 0 -608 230l115 131q96 -88 229 -140t285 -52t257 64q105 65 105 175t-94 174q-69 46 -213 100l-244 86q-354 129 -354 383q0 180 150 293t383 113q307 0 514 -191l-105 -125q-180 150 -411 150q-147 0 -243 -58t-95 -162
q0 -104 103 -165q79 -47 200 -88l241 -86q361 -127 361 -408z" />
    <glyph glyph-name="Identity.59043" unicode="&#xff34;" 
d="M928 0v1346h-539v159h1270v-159h-541v-1346h-190z" />
    <glyph glyph-name="Identity.59044" unicode="&#xff35;" 
d="M1450 1505h190v-882q0 -492 -375 -615q-108 -35 -240 -35q-133 0 -239 35q-368 121 -368 615v882h186v-889q0 -252 116 -364t305 -111q189 0 307 112t118 363v889z" />
    <glyph glyph-name="Identity.59045" unicode="&#xff36;" 
d="M915 0l-555 1505h199l291 -817q162 -461 174 -495h10q33 87 88 247t86 248l289 817h193l-555 -1505h-220z" />
    <glyph glyph-name="Identity.59046" unicode="&#xff37;" 
d="M438 0l-379 1505h195l195 -815q25 -119 112 -485h8q78 299 131 485l242 815h172l246 -817q89 -333 133 -483h10q45 201 103 483l196 817h183l-369 -1505h-230l-270 905q-29 100 -88 346h-8q-8 -33 -40 -155t-50 -191l-266 -905h-226z" />
    <glyph glyph-name="Identity.59047" unicode="&#xff38;" 
d="M403 0l506 774l-473 731h211l244 -387q63 -102 139 -219h8q68 119 131 219l238 387h201l-471 -735l510 -770h-217l-259 406q-23 38 -75 118t-78 123h-8q-35 -55 -89 -145t-59 -96l-254 -406h-205z" />
    <glyph glyph-name="Identity.59048" unicode="&#xff39;" 
d="M930 0v586l-522 919h200l236 -424q141 -266 176 -329h8q104 178 182 329l234 424h196l-522 -919v-586h-188z" />
    <glyph glyph-name="Identity.59049" unicode="&#xff3a;" 
d="M442 0v115l914 1231h-844v159h1087v-112l-913 -1231h938v-162h-1182z" />
    <glyph glyph-name="Identity.59056" unicode="&#xff41;" 
d="M705 303q-1 -90 69 -134t178 -44q184 0 379 164v293q-344 -26 -485 -94t-141 -185zM522 289q0 186 190 284t619 132q-4 127 -75 205q-72 78 -238 77q-166 0 -373 -135l-76 129q243 158 481 158t353 -121t115 -334v-684h-154l-16 152h-7q-229 -176 -440 -177
q-163 1 -271 85t-108 229z" />
    <glyph glyph-name="Identity.59057" unicode="&#xff42;" 
d="M1032 131q168 0 277 120t109 314t-88 305q-87 111 -262 111t-363 -152v-577q159 -121 327 -121zM1612 566q0 -265 -156 -428t-375 -163t-389 140h-8l-18 -115h-150v1630h189v-448l-9 -201q215 158 416 158q242 0 371 -154t129 -419z" />
    <glyph glyph-name="Identity.59058" unicode="&#xff43;" 
d="M518 555q0 268 179 426t429 158t420 -162l-92 -119q-140 123 -320 123t-300 -119t-121 -308q1 -189 119 -306t306 -117t351 139l84 -123q-189 -172 -451 -172t-433 156t-171 424z" />
    <glyph glyph-name="Identity.59059" unicode="&#xff44;" 
d="M1020 983q-168 0 -280 -120q-112 -121 -111 -311q0 -190 103 -306t274 -115q171 0 337 154v581q-155 117 -323 117zM952 -27q-232 0 -373 156q-143 156 -143 422t160 428t369 162t387 -129l-11 190l2 428h187v-1630h-152l-18 129h-6q-170 -156 -402 -156z" />
    <glyph glyph-name="Identity.59060" unicode="&#xff45;" 
d="M1415 645q0 164 -93 255t-251 91t-270 -94t-135 -252h749zM475 553q0 262 175 424t415 162q240 -1 381 -143t141 -378q0 -51 -8 -108h-911q6 -174 130 -280t320 -105q196 0 359 102l65 -125q-194 -127 -454 -127t-437 158q-176 158 -176 420z" />
    <glyph glyph-name="Identity.59061" unicode="&#xff46;" 
d="M1358 1503q-283 0 -283 -289v-100h469v-151h-469v-963h-182v963h-320v141l320 10v94q0 209 112 328t334 119q172 -1 322 -64l-45 -139q-119 51 -258 51z" />
    <glyph glyph-name="Identity.59062" unicode="&#xff47;" 
d="M643 -186q0 -90 100 -144q101 -54 287 -53q186 0 303 69q117 68 117 152t-61 115t-195 31h-240q-106 0 -170 18q-141 -79 -141 -188zM727 741q0 -117 80 -191t198 -73q119 0 197 74q78 73 78 189t-81 191t-195 75t-196 -74q-81 -74 -81 -191zM1210 137q218 0 320 -62
t102 -211q0 -148 -171 -262t-435 -114t-404 81t-141 224q0 143 183 250v10q-115 59 -115 179t139 212v11q-141 111 -141 287t134 287q134 110 325 110q109 0 176 -25h454v-143h-293q109 -94 109 -234q0 -176 -127 -280t-319 -105q-115 0 -209 43q-88 -59 -88 -129
q0 -129 229 -129h272z" />
    <glyph glyph-name="Identity.59063" unicode="&#xff48;" 
d="M535 0v1630h186v-440l-6 -236q211 186 436 187q187 0 285 -110t98 -326v-705h-188v680q0 158 -66 228t-197 69q-168 0 -362 -170v-807h-186z" />
    <glyph glyph-name="Identity.59064" unicode="&#xff49;" 
d="M1278 1481q0 -61 -40 -99t-102 -39q-62 0 -103 38q-40 39 -40 101t40 100q41 38 103 38t102 -39t40 -100zM1065 0v963h-506v151h692v-1114h-186z" />
    <glyph glyph-name="Identity.59065" unicode="&#xff4a;" 
d="M1139 1343q-61 0 -102 38q-40 37 -40 99t40 101q39 39 101 39t103 -39t41 -100t-41 -99t-102 -39zM545 963v151h704v-1145q0 -221 -106 -344t-363 -123q-168 0 -315 74l59 141q122 -63 268 -63t208 76t63 227v1006h-518z" />
    <glyph glyph-name="Identity.59066" unicode="&#xff4b;" 
d="M592 0v1630h184v-1108h6l570 590h211l-430 -444l491 -668h-209l-393 543l-246 -250v-293h-184z" />
    <glyph glyph-name="Identity.59067" unicode="&#xff4c;" 
d="M522 1477v153h568v-1270q0 -229 219 -229q92 0 211 47l47 -139q-182 -63 -297 -64q-178 -1 -272 101t-93 301v1100h-383z" />
    <glyph glyph-name="Identity.59068" unicode="&#xff4d;" 
d="M158 0v1116h153l19 -166h6q205 190 409 191q256 0 349 -213q231 213 432 213q377 0 377 -436v-705h-187v680q0 154 -62 226t-192 71q-158 0 -340 -170v-807h-186v680q0 297 -254 297q-162 0 -338 -170v-807h-186z" />
    <glyph glyph-name="Identity.59069" unicode="&#xff4e;" 
d="M532 0v1116h152l18 -166h7q219 190 440 191q387 0 387 -436v-705h-195v680q-1 154 -65 226t-178 71q-114 0 -194 -40q-81 -40 -185 -130v-807h-187z" />
    <glyph glyph-name="Identity.59070" unicode="&#xff4f;" 
d="M639 555q1 -190 107 -307t279 -117t279 117q105 117 105 307t-105 308q-104 118 -278 118t-280 -118t-107 -308zM1024 -25q-242 0 -413 158t-171 424t170 424t414 158t414 -158t170 -424t-171 -424t-413 -158z" />
    <glyph glyph-name="Identity.59071" unicode="&#xff50;" 
d="M1032 131q170 0 277 119q106 119 106 321q0 412 -354 412q-162 0 -359 -152v-579q160 -121 330 -121zM516 -469v1585h154l16 -133h8q219 158 418 158q242 0 370 -152t128 -421t-157 -432t-388 -163q-186 0 -367 127l4 -145v-424h-186z" />
    <glyph glyph-name="Identity.59072" unicode="&#xff51;" 
d="M1022 983q-170 0 -280 -120q-110 -121 -111 -313q0 -192 99 -306t276 -113q177 0 337 154v581q-151 117 -321 117zM945 -27q-227 0 -367 154t-140 422t161 430t371 162t386 -135h10l18 110h146v-1585h-189l2 397l11 199q-182 -154 -409 -154z" />
    <glyph glyph-name="Identity.59073" unicode="&#xff52;" 
d="M672 0v1114h155l17 -262h4q188 287 498 287q129 0 227 -45l-49 -160q-104 39 -205 39q-279 0 -461 -320v-653h-186z" />
    <glyph glyph-name="Identity.59074" unicode="&#xff53;" 
d="M1352 288q0 71 -82 123t-281 99q-424 106 -424 317q0 137 122 225q121 88 357 87q236 0 437 -142l-90 -118q-168 117 -359 116q-276 0 -276 -159q0 -64 86 -110t288 -97t306 -126t104 -207t-132 -226t-359 -95q-305 0 -547 172l90 123q205 -152 463 -151q143 0 220 49
t77 120z" />
    <glyph glyph-name="Identity.59075" unicode="&#xff54;" 
d="M809 436v527h-315v141l323 10l23 313h155v-313h549v-151h-549v-531q-1 -158 63 -232t210 -73q146 0 278 49l41 -137q-182 -63 -348 -64q-231 0 -331 120q-99 120 -99 341z" />
    <glyph glyph-name="Identity.59076" unicode="&#xff55;" 
d="M899 -27q-186 0 -283 112q-96 112 -96 325v706h189v-682q1 -156 65 -226t193 -71q178 0 358 189v790h186v-1116h-153l-17 176h-6q-203 -203 -436 -203z" />
    <glyph glyph-name="Identity.59077" unicode="&#xff56;" 
d="M920 0l-463 1116h192l252 -637q41 -102 123 -327h10l56 152t65 175l254 637h182l-454 -1116h-217z" />
    <glyph glyph-name="Identity.59078" unicode="&#xff57;" 
d="M516 0l-364 1116h190l203 -647q14 -57 43 -161t41 -148h12q51 188 90 305l205 651h182l209 -647q18 -53 94 -309h11q53 202 86 309l196 647h178l-350 -1116h-227l-193 600q-16 50 -47 156t-49 166h-10q-35 -127 -98 -326l-185 -596h-217z" />
    <glyph glyph-name="Identity.59079" unicode="&#xff58;" 
d="M489 0l420 582l-387 534h203l178 -248q15 -25 61 -88t70 -98h8q16 27 119 188l168 246h197l-389 -553l422 -563h-205l-195 260q-25 37 -147 201h-8q-72 -106 -134 -201l-184 -260h-197z" />
    <glyph glyph-name="Identity.59080" unicode="&#xff59;" 
d="M651 -479q-82 0 -149 24l39 150q45 -20 100 -21q201 0 293 240l31 84l-512 1118h196l269 -620q24 -51 68 -160t65 -156h10q88 246 113 316l237 620h184l-481 -1210q-76 -182 -185 -284q-110 -101 -278 -101z" />
    <glyph glyph-name="Identity.59081" unicode="&#xff5a;" 
d="M518 0v100l746 863h-668v151h917v-100l-741 -862h766v-152h-1020z" />
  </font>
</defs>
</svg>
